<?xml version="1.0" encoding="UTF-8"?>
<svg version="1.1" xmlns="http://www.w3.org/2000/svg" width="302" height="162">
    <path d="M0 0 C0.79792969 0.00386719 1.59585938 0.00773437 2.41796875 0.01171875 C3.21589844 0.00785156 4.01382813 0.00398438 4.8359375 0 C10.79136108 0.01011108 10.79136108 0.01011108 11.91796875 1.13671875 C12.0767083 3.35359869 12.16930712 5.57527173 12.234375 7.796875 C12.2551561 8.4613414 12.27593719 9.1258078 12.29734802 9.81040955 C12.36290533 11.93990418 12.4217566 14.06952543 12.48046875 16.19921875 C12.52364814 17.63998722 12.56726224 19.08074274 12.61132812 20.52148438 C12.71859268 24.05975915 12.81984246 27.59817744 12.91796875 31.13671875 C13.44471191 30.85884521 13.97145508 30.58097168 14.51416016 30.29467773 C21.68020211 26.59668474 27.14036575 25.15083232 35.10546875 27.32421875 C39.23836571 28.72979057 42.53422136 30.37629324 45.91796875 33.13671875 C45.91796875 33.79671875 45.91796875 34.45671875 45.91796875 35.13671875 C46.57796875 35.13671875 47.23796875 35.13671875 47.91796875 35.13671875 C54.77360124 44.1347364 55.48046999 54.86705594 54.79296875 65.88671875 C53.6898558 73.56553097 49.21893248 81.4776899 43.34765625 86.47265625 C36.91440744 91.12935936 28.88322656 92.91043779 21.03515625 91.6875 C16.62520717 90.44349944 12.69271415 88.77904053 8.91796875 86.13671875 C8.58796875 87.45671875 8.25796875 88.77671875 7.91796875 90.13671875 C2.96796875 90.13671875 -1.98203125 90.13671875 -7.08203125 90.13671875 C-7.10515353 78.54983473 -7.12294575 66.96295616 -7.13384342 55.37605381 C-7.1390725 49.99638113 -7.1461706 44.61672417 -7.1574707 39.23706055 C-7.1682987 34.04997032 -7.1743079 28.86289526 -7.17690849 23.6757946 C-7.1787629 21.69215595 -7.18238381 19.70851817 -7.18776131 17.72488594 C-7.19497057 14.95662739 -7.19602224 12.18843237 -7.19555664 9.42016602 C-7.19915192 8.59154556 -7.20274719 7.76292511 -7.20645142 6.90919495 C-7.19386393 0.03947092 -6.87443414 0.01167137 0 0 Z M13.79296875 47.15625 C11.15831464 51.34425226 11.36545031 54.79110338 11.48046875 59.63671875 C11.47337891 60.47847656 11.46628906 61.32023437 11.45898438 62.1875 C11.50780829 66.95722124 11.78139617 70.30313005 14.91796875 74.13671875 C18.56951271 76.43877908 21.61164041 78.08201034 25.91796875 77.13671875 C30.41629073 74.2030305 33.37523928 71.37309858 34.91796875 66.13671875 C35.27140036 62.52914568 35.27140036 62.52914568 35.23046875 58.69921875 C35.24722656 57.42175781 35.26398438 56.14429688 35.28125 54.828125 C34.89210518 50.87391147 34.02066811 48.48619514 31.91796875 45.13671875 C24.74870848 40.46111423 19.85322793 41.39677574 13.79296875 47.15625 Z "
          fill="#61A7AA" transform="translate(170.08203125,23.86328125)"/>
    <path d="M0 0 C2.17734939 1.8275586 3.76145558 3.34037567 5.1640625 5.81640625 C5.125 7.83984375 5.125 7.83984375 4.1640625 9.81640625 C2.203125 11.66796875 2.203125 11.66796875 -0.2109375 13.44140625 C-1.00242187 14.03179687 -1.79390625 14.6221875 -2.609375 15.23046875 C-4.33027411 16.45623198 -6.07796876 17.64442709 -7.8359375 18.81640625 C-8.5784375 18.05328125 -9.3209375 17.29015625 -10.0859375 16.50390625 C-14.77986424 11.91665966 -18.90211209 8.8261185 -25.8203125 8.8125 C-32.67613246 9.46353717 -38.92176778 11.90223653 -43.8359375 16.81640625 C-49.33777738 25.63416983 -50.16933424 35.55135492 -48.3046875 45.7109375 C-46.69583037 51.54304461 -44.90529231 55.82187966 -39.671875 59.22265625 C-34.03792259 62.36232013 -29.26556938 63.90597143 -22.8359375 62.81640625 C-18.65574131 61.49267746 -16.31420127 60.29467002 -13.2109375 57.19140625 C-10.52078082 54.50124957 -9.59151045 53.91907659 -5.8359375 53.81640625 C-2.94140625 55.6875 -2.94140625 55.6875 -0.0234375 58.25390625 C0.95238281 59.09824219 1.92820312 59.94257812 2.93359375 60.8125 C4.03767578 61.80443359 4.03767578 61.80443359 5.1640625 62.81640625 C2.87771336 69.6280682 -2.13747778 73.83103677 -8.3828125 77.18359375 C-20.29291463 82.01106118 -32.71032813 81.67589899 -44.8359375 77.81640625 C-48.05610466 76.4157266 -50.93490342 74.78786167 -53.8359375 72.81640625 C-54.7021875 72.25953125 -55.5684375 71.70265625 -56.4609375 71.12890625 C-65.53700916 62.29167858 -69.86080599 52.00176754 -70.30639648 39.44799805 C-70.46174766 25.60890439 -67.61573402 13.78075999 -57.6953125 3.625 C-40.99805624 -11.79440502 -18.50070754 -13.12669249 0 0 Z "
          fill="#61A7AA" transform="translate(90.8359375,35.18359375)"/>
    <path d="M0 0 C5.5281249 4.16754427 8.42856073 8.49302328 9.76171875 15.328125 C10.02037267 18.84050055 9.99535506 22.33519324 9.95703125 25.85546875 C9.95420135 26.84438614 9.95137146 27.83330353 9.94845581 28.85218811 C9.93732017 31.99012695 9.91222778 35.12777339 9.88671875 38.265625 C9.8766804 40.40168857 9.86755605 42.53775664 9.859375 44.67382812 C9.8374025 49.8920386 9.80291839 55.11003234 9.76171875 60.328125 C4.15171875 60.328125 -1.45828125 60.328125 -7.23828125 60.328125 C-7.23828125 59.008125 -7.23828125 57.688125 -7.23828125 56.328125 C-7.93953125 56.67746094 -8.64078125 57.02679688 -9.36328125 57.38671875 C-17.57266061 61.32409771 -24.00930723 63.47125013 -33.06640625 61.11328125 C-38.57930677 59.12030822 -42.89295437 55.73790729 -45.578125 50.4140625 C-47.1589218 45.41911878 -47.29094707 39.9552522 -45.33203125 35.06640625 C-44.23828125 33.140625 -44.23828125 33.140625 -42.23828125 30.328125 C-41.57828125 30.328125 -40.91828125 30.328125 -40.23828125 30.328125 C-40.23828125 29.668125 -40.23828125 29.008125 -40.23828125 28.328125 C-30.4429795 22.22046626 -21.55105569 21.05717046 -10.23828125 20.328125 C-10.73328125 16.863125 -10.73328125 16.863125 -11.23828125 13.328125 C-18.43070496 12.89000782 -23.93118996 12.96788615 -30.30078125 16.55078125 C-32.23828125 17.328125 -32.23828125 17.328125 -34.28515625 17.19140625 C-36.82633362 16.06820585 -37.86415596 14.69244927 -39.48828125 12.453125 C-40.26945312 11.40511719 -40.26945312 11.40511719 -41.06640625 10.3359375 C-42.23828125 8.328125 -42.23828125 8.328125 -42.23828125 5.328125 C-40.296875 3.79296875 -40.296875 3.79296875 -37.67578125 2.265625 C-36.82886719 1.75902344 -35.98195313 1.25242188 -35.109375 0.73046875 C-25.34318034 -4.03968619 -9.83011014 -5.48477658 0 0 Z M-27.23828125 38.328125 C-28.55879622 40.19072037 -28.55879622 40.19072037 -28.23828125 42.328125 C-26.99465471 45.26002672 -26.99465471 45.26002672 -24.23828125 47.328125 C-19.82700081 48.28924197 -16.33986793 47.86719933 -12.30078125 45.890625 C-9.4345832 42.32959106 -8.87619545 38.78400332 -8.23828125 34.328125 C-18.65599737 33.42888265 -18.65599737 33.42888265 -27.23828125 38.328125 Z "
          fill="#5FA6A8" transform="translate(144.23828125,53.671875)"/>
    <path d="M0 0 C2.0625 1.5 2.0625 1.5 4.0625 4.5 C3.92331489 7.72703254 3.41746082 9.12048214 1.19921875 11.4921875 C-18.13930698 26.35848639 -39.47577545 34.05619685 -64.078125 31.03515625 C-78.46402848 28.96969872 -91.03007741 23.96431244 -102.9375 15.5 C-103.69675781 14.97792969 -104.45601563 14.45585937 -105.23828125 13.91796875 C-105.79902344 13.45003906 -106.35976562 12.98210937 -106.9375 12.5 C-106.9375 11.84 -106.9375 11.18 -106.9375 10.5 C-107.5975 10.5 -108.2575 10.5 -108.9375 10.5 C-110.26600242 4.09903382 -110.26600242 4.09903382 -108.875 1.5625 C-106.03145741 0.00313793 -104.16197603 0.17564442 -100.9375 0.5 C-98.52534894 1.83754348 -96.41379284 3.16023354 -94.1875 4.75 C-77.83217303 15.77784494 -58.00443147 19.29521865 -38.55859375 15.80859375 C-30.69549628 14.12297946 -23.57841946 11.26294226 -16.4140625 7.671875 C-13.9375 6.5 -13.9375 6.5 -11.9375 6.5 C-11.9375 5.84 -11.9375 5.18 -11.9375 4.5 C-3.96640598 -0.67513293 -3.96640598 -0.67513293 0 0 Z "
          fill="#62AAAC" transform="translate(208.9375,126.5)"/>
    <path d="M0 0 C0.79792969 0.00386719 1.59585938 0.00773437 2.41796875 0.01171875 C3.21589844 0.00785156 4.01382813 0.00398438 4.8359375 0 C10.79136108 0.01011108 10.79136108 0.01011108 11.91796875 1.13671875 C12.01183256 3.00852815 12.03540679 4.88389935 12.03149414 6.75805664 C12.03141861 7.95922623 12.03134308 9.16039581 12.03126526 10.39796448 C12.02610397 11.70522995 12.02094269 13.01249542 12.015625 14.359375 C12.01376073 15.70316007 12.01233687 17.04694582 12.01133728 18.39073181 C12.00751277 21.93354152 11.99768307 25.47631045 11.9866333 29.019104 C11.97641774 32.63187102 11.97183935 36.24464459 11.96679688 39.85742188 C11.95606073 46.95053914 11.93846447 54.043622 11.91796875 61.13671875 C5.64796875 61.13671875 -0.62203125 61.13671875 -7.08203125 61.13671875 C-7.10458622 53.33096288 -7.12294863 45.52522468 -7.13384342 37.71944523 C-7.13907127 34.09525915 -7.14616712 30.47109645 -7.1574707 26.84692383 C-7.16830309 23.352119 -7.17430883 19.85733671 -7.17690849 16.3625164 C-7.17966676 14.37432486 -7.18747813 12.38614244 -7.19532776 10.39796448 C-7.19540329 9.19679489 -7.19547882 7.99562531 -7.19555664 6.75805664 C-7.19777725 5.6943837 -7.19999786 4.63071075 -7.20228577 3.5348053 C-6.96465017 -1.20406648 -4.07642964 0.00692093 0 0 Z "
          fill="#64ACAE" transform="translate(238.08203125,52.86328125)"/>
    <path d="M0 0 C5.94 0 11.88 0 18 0 C18 20.13 18 40.26 18 61 C12.06 61 6.12 61 0 61 C-0.89489485 57.42042059 -1.09405191 54.94571816 -1.02172852 51.31347656 C-1.00163223 50.17259583 -0.98153595 49.03171509 -0.96083069 47.85626221 C-0.93379562 46.63010193 -0.90676056 45.40394165 -0.87890625 44.140625 C-0.85529526 42.88111023 -0.83168427 41.62159546 -0.80735779 40.32391357 C-0.74377606 36.98327726 -0.67556319 33.64280089 -0.60510254 30.30230713 C-0.53427725 26.89041532 -0.46954538 23.47840846 -0.40429688 20.06640625 C-0.2751447 13.37748117 -0.13932202 6.68872067 0 0 Z "
          fill="#60A7AA" transform="translate(261,53)"/>
    <path d="M0 0 C2.41215106 1.33754348 4.52370716 2.66023354 6.75 4.25 C12.30486745 7.99545963 17.53668953 11.05215301 24 13 C25.40958984 13.44472656 25.40958984 13.44472656 26.84765625 13.8984375 C38.67410881 17.03108229 50.86637285 16.27868755 63 16 C62.67 16.66 62.34 17.32 62 18 C53.75 18 45.5 18 37 18 C37.495 19.98 37.495 19.98 38 22 C37.34 22 36.68 22 36 22 C36 22.99 36 23.98 36 25 C36.66 25.33 37.32 25.66 38 26 C38.99 26.66 39.98 27.32 41 28 C43.12337771 28.36433373 43.12337771 28.36433373 45.44921875 28.4140625 C46.29677734 28.45273438 47.14433594 28.49140625 48.01757812 28.53125 C49.33918945 28.57765625 49.33918945 28.57765625 50.6875 28.625 C51.58017578 28.66367188 52.47285156 28.70234375 53.39257812 28.7421875 C55.5948462 28.83640218 57.79710722 28.92201588 60 29 C60 29.33 60 29.66 60 30 C40.83304027 34.40130186 19.12336597 28.5310955 2.8125 18.3125 C1.19327827 17.23053156 -0.41272017 16.12830735 -2 15 C-2.75925781 14.47792969 -3.51851563 13.95585937 -4.30078125 13.41796875 C-4.86152344 12.95003906 -5.42226562 12.48210937 -6 12 C-6 11.34 -6 10.68 -6 10 C-6.66 10 -7.32 10 -8 10 C-9.32850242 3.59903382 -9.32850242 3.59903382 -7.9375 1.0625 C-5.09395741 -0.49686207 -3.22447603 -0.32435558 0 0 Z "
          fill="#6CB0B3" transform="translate(108,127)"/>
    <path d="M0 0 C3.63947308 2.12302596 5.43520769 4.13735952 7 8 C7.22823124 12.32117812 6.78886913 15.93910703 4.1875 19.4375 C-0.00165445 22.42975318 -2.7266999 23.63279601 -8 23 C-11.0603333 21.2344231 -13.50587755 19.49412245 -16 17 C-16.98185189 12.46837587 -17.38337216 10.06940654 -15.8125 5.6875 C-11.64851945 -0.48667806 -7.07158979 -1.04297353 0 0 Z "
          fill="#64AAAC" transform="translate(275,25)"/>
    <path d="M0 0 C3.0597733 1.74387915 5.39965689 3.79931379 7 7 C7.34444547 12.25279338 7.57741751 15.82634624 4 20 C-0.1486039 22.89437482 -3.25065037 23.42230166 -8.1015625 22.5859375 C-11.00621158 21.68944087 -12.87489866 20.12510134 -15 18 C-16.89228081 14.21543839 -16.7463327 10.101694 -16 6 C-12.35673576 0.17534557 -6.53014909 -1.62364868 0 0 Z "
          fill="#68ACAF" transform="translate(245,25)"/>
    <path d="M0 0 C2.921875 1.5390625 2.921875 1.5390625 5.75 3.625 C6.69359375 4.29789063 7.6371875 4.97078125 8.609375 5.6640625 C11.35392324 8.34582696 12.17573643 10.28322867 13 14 C12.4375 16.3125 12.4375 16.3125 11 18 C8.875 19 8.875 19 6 19 C1.69615139 17.39140449 -2.60233468 15.11452654 -6 12 C-6 11.34 -6 10.68 -6 10 C-6.66 10 -7.32 10 -8 10 C-9.32850242 3.59903382 -9.32850242 3.59903382 -7.9375 1.0625 C-5.12846835 -0.47793671 -3.17774817 -0.2874923 0 0 Z "
          fill="#65A8AB" transform="translate(108,127)"/>
    <path d="M0 0 C0.66 0 1.32 0 2 0 C2.36354039 2.41559068 2.71610551 4.83194297 3.0625 7.25 C3.16626953 7.93191406 3.27003906 8.61382812 3.37695312 9.31640625 C3.88370724 12.91610791 3.87163286 15.52713176 3 19 C2.90868017 20.80813261 2.86934535 22.61925159 2.8671875 24.4296875 C2.86589844 25.47253906 2.86460937 26.51539063 2.86328125 27.58984375 C2.86714844 28.67394531 2.87101563 29.75804688 2.875 30.875 C2.87113281 31.95136719 2.86726562 33.02773438 2.86328125 34.13671875 C2.86955838 39.22747348 3.06432327 43.98137027 4 49 C3.505 49.495 3.505 49.495 3 50 C2.76572222 52.01594582 2.58663876 54.038474 2.4375 56.0625 C2.35371094 57.16722656 2.26992187 58.27195313 2.18359375 59.41015625 C2.12300781 60.26480469 2.06242188 61.11945313 2 62 C2.66 62 3.32 62 4 62 C4.02689216 63.47906892 4.04634621 64.95827483 4.0625 66.4375 C4.07410156 67.26121094 4.08570313 68.08492188 4.09765625 68.93359375 C4 71 4 71 3 72 C2.92728259 74.35313555 2.91629132 76.70833668 2.9375 79.0625 C2.95103516 80.99802734 2.95103516 80.99802734 2.96484375 82.97265625 C2.97644531 83.97167969 2.98804688 84.97070312 3 86 C6.63 86.33 10.26 86.66 14 87 C14 87.33 14 87.66 14 88 C9.38 88 4.76 88 0 88 C0 58.96 0 29.92 0 0 Z "
          fill="#88B9B8" transform="translate(163,25)"/>
    <path d="M0 0 C1.98 0 3.96 0 6 0 C5.690625 0.53625 5.38125 1.0725 5.0625 1.625 C2.34529253 7.69875788 2.79069742 14.55574369 2.68359375 21.0859375 C2.66281265 22.14285797 2.64203156 23.19977844 2.62062073 24.28872681 C2.55546009 27.65075445 2.49639639 31.01285737 2.4375 34.375 C2.39428292 36.6601639 2.35066762 38.94532031 2.30664062 41.23046875 C2.19981317 46.82023391 2.09798575 52.41007324 2 58 C2.7425 57.79375 3.485 57.5875 4.25 57.375 C7 57 7 57 11 59 C5.555 59.495 5.555 59.495 0 60 C0 40.2 0 20.4 0 0 Z "
          fill="#9EC2C2" transform="translate(231,54)"/>
    <path d="M0 0 C2.81256281 -0.02684312 5.62487241 -0.04676188 8.4375 -0.0625 C9.23994141 -0.07087891 10.04238281 -0.07925781 10.86914062 -0.08789062 C12.91295221 -0.0965143 14.95683902 -0.0522815 17 0 C18.9230889 1.9230889 18.25321838 5.47070485 18.31640625 8.09765625 C18.33718735 8.80651474 18.35796844 9.51537323 18.37937927 10.24571228 C18.44494598 12.51787305 18.5037923 14.79015264 18.5625 17.0625 C18.60567849 18.59962183 18.64929255 20.1367315 18.69335938 21.67382812 C18.80063449 25.4490959 18.90188137 29.2244836 19 33 C18.34 33 17.68 33 17 33 C17 23.76 17 14.52 17 5 C16.34 4.67 15.68 4.34 15 4 C14.67 3.67 14.34 3.34 14 3 C11.80949979 3.09017996 9.621534 3.24666208 7.4375 3.4375 C6.23996094 3.53933594 5.04242188 3.64117188 3.80859375 3.74609375 C2.88175781 3.82988281 1.95492187 3.91367187 1 4 C0.67 2.68 0.34 1.36 0 0 Z "
          fill="#9BCCCA" transform="translate(164,24)"/>
    <path d="M0 0 C2.49361571 1.20381448 4.68143083 2.45428722 7 4 C9.12337771 4.36433373 9.12337771 4.36433373 11.44921875 4.4140625 C12.29677734 4.45273438 13.14433594 4.49140625 14.01757812 4.53125 C15.33918945 4.57765625 15.33918945 4.57765625 16.6875 4.625 C18.02651367 4.68300781 18.02651367 4.68300781 19.39257812 4.7421875 C21.5948462 4.83640218 23.79710722 4.92201588 26 5 C26 5.33 26 5.66 26 6 C13.90317823 8.7777887 1.92438803 6.42529926 -10 4 C-10 3.67 -10 3.34 -10 3 C-8.35 3 -6.7 3 -5 3 C-5 2.34 -5 1.68 -5 1 C-3.68 1.33 -2.36 1.66 -1 2 C-0.67 1.34 -0.34 0.68 0 0 Z "
          fill="#97C9CB" transform="translate(142,151)"/>
    <path d="M0 0 C0.33 0 0.66 0 1 0 C1 11.22 1 22.44 1 34 C-4.61 34 -10.22 34 -16 34 C-16 32.68 -16 31.36 -16 30 C-17.32 30.33 -18.64 30.66 -20 31 C-19.67 30.34 -19.34 29.68 -19 29 C-18.34 29 -17.68 29 -17 29 C-16.67 27.68 -16.34 26.36 -16 25 C-15.34 25 -14.68 25 -14 25 C-14.33 27.64 -14.66 30.28 -15 33 C-10.05 33 -5.1 33 0 33 C0 22.11 0 11.22 0 0 Z "
          fill="#B4D6D7" transform="translate(153,80)"/>
    <path d="M0 0 C3.37503669 1.1858237 5.64722731 2.27573689 8 5 C6.73058503 8.91402949 5.48832306 10.79072873 2 13 C1.71125 12.360625 1.4225 11.72125 1.125 11.0625 C0.17176549 8.84793921 0.17176549 8.84793921 -2 8 C-1.67 6.68 -1.34 5.36 -1 4 C-0.34 4 0.32 4 1 4 C0.67 2.68 0.34 1.36 0 0 Z "
          fill="#77AFB2" transform="translate(88,93)"/>
    <path d="M0 0 C0.99 0.33 1.98 0.66 3 1 C3.02689216 2.47906892 3.04634621 3.95827483 3.0625 5.4375 C3.07410156 6.26121094 3.08570313 7.08492188 3.09765625 7.93359375 C3 10 3 10 2 11 C1.92728259 13.35313555 1.91629132 15.70833668 1.9375 18.0625 C1.94652344 19.35285156 1.95554688 20.64320312 1.96484375 21.97265625 C1.97644531 22.97167969 1.98804688 23.97070312 2 25 C5.63 25.33 9.26 25.66 13 26 C13 26.33 13 26.66 13 27 C8.38 27 3.76 27 -1 27 C-0.67 18.09 -0.34 9.18 0 0 Z "
          fill="#5C9997" transform="translate(164,86)"/>
    <path d="M0 0 C5.28 0 10.56 0 16 0 C16 0.33 16 0.66 16 1 C15.07316406 1.06058594 14.14632813 1.12117188 13.19140625 1.18359375 C11.39509766 1.30927734 11.39509766 1.30927734 9.5625 1.4375 C8.36753906 1.51871094 7.17257812 1.59992187 5.94140625 1.68359375 C3.11429756 1.67656114 3.11429756 1.67656114 2 3 C1.83989519 5.73701178 1.74053172 8.4516759 1.68359375 11.19140625 C1.66281265 12.01124496 1.64203156 12.83108368 1.62062073 13.67576599 C1.55503506 16.30458901 1.49619874 18.93351504 1.4375 21.5625 C1.39432333 23.34050561 1.35070933 25.11850065 1.30664062 26.89648438 C1.19934457 31.26421634 1.09810296 35.63205227 1 40 C0.67 40 0.34 40 0 40 C0 26.8 0 13.6 0 0 Z "
          fill="#579A98" transform="translate(262,54)"/>
    <path d="M0 0 C-2.94689877 1.96459918 -3.69577868 2.23098617 -7 2.4375 C-10.48204402 2.79203539 -11.6648897 3.34646557 -14 6 C-17.64402039 7.47311463 -20.02776775 8 -24 8 C-23 5 -23 5 -21.1796875 3.8671875 C-14.02359399 0.7864286 -7.82130465 -0.15961846 0 0 Z "
          fill="#83B6B5" transform="translate(130,75)"/>
    <path d="M0 0 C2.0625 1.75 2.0625 1.75 4 4 C4 6.0625 4 6.0625 3 8 C-0.32142857 11 -0.32142857 11 -3 11 C-3.32613618 6.32538149 -2.70582788 3.83325617 0 0 Z "
          fill="#7AB6B6" transform="translate(92,37)"/>
    <path d="M0 0 C0.56203125 0.37898438 1.1240625 0.75796875 1.703125 1.1484375 C1.043125 1.1484375 0.383125 1.1484375 -0.296875 1.1484375 C-0.626875 2.1384375 -0.956875 3.1284375 -1.296875 4.1484375 C-3.07421875 5.0625 -3.07421875 5.0625 -5.234375 5.7734375 C-7.34502364 6.48592506 -9.3025501 7.15127505 -11.296875 8.1484375 C-11.956875 7.4884375 -12.616875 6.8284375 -13.296875 6.1484375 C-12.636875 6.1484375 -11.976875 6.1484375 -11.296875 6.1484375 C-11.296875 5.4884375 -11.296875 4.8284375 -11.296875 4.1484375 C-9.89233857 3.25409593 -8.47265631 2.38350558 -7.046875 1.5234375 C-6.25796875 1.03617187 -5.4690625 0.54890625 -4.65625 0.046875 C-2.296875 -0.8515625 -2.296875 -0.8515625 0 0 Z "
          fill="#7BB2B2" transform="translate(208.296875,126.8515625)"/>
    <path d="M0 0 C1.60875 0.185625 1.60875 0.185625 3.25 0.375 C2.610625 0.601875 1.97125 0.82875 1.3125 1.0625 C-1.02193661 2.22750896 -1.02193661 2.22750896 -1.5 5 C-1.5825 5.78375 -1.665 6.5675 -1.75 7.375 C-3.4 7.375 -5.05 7.375 -6.75 7.375 C-6.75 9.685 -6.75 11.995 -6.75 14.375 C-7.08 14.375 -7.41 14.375 -7.75 14.375 C-8.069758 9.73850895 -8.10064319 7.16044075 -6.1875 2.875 C-3.75 0.375 -3.75 0.375 0 0 Z "
          fill="#599899" transform="translate(237.75,25.625)"/>
    <path d="M0 0 C0.99 0.33 1.98 0.66 3 1 C-1.48955125 4.83614239 -6.25097058 5.41928996 -12 6 C-15.6875 5.625 -15.6875 5.625 -18 5 C-18 4.67 -18 4.34 -18 4 C-15.02148438 3.65820312 -15.02148438 3.65820312 -12.04296875 3.31640625 C-9.80603607 3.02829265 -9.80603607 3.02829265 -7 2 C-3.86650268 0.95550089 -3.01031744 1.06576355 0 2 C0 1.34 0 0.68 0 0 Z "
          fill="#8BC2C1" transform="translate(130,110)"/>
    <path d="M0 0 C7.66816143 -0.76681614 7.66816143 -0.76681614 10.93359375 1.11328125 C12.5625 2.5 12.5625 2.5 15 5 C14.67 5.66 14.34 6.32 14 7 C12.35 6.67 10.7 6.34 9 6 C9 5.01 9 4.02 9 3 C8.071875 3.061875 7.14375 3.12375 6.1875 3.1875 C3 3 3 3 1.30078125 1.48828125 C0.87152344 0.99714844 0.44226563 0.50601562 0 0 Z "
          fill="#78A8A8" transform="translate(236,25)"/>
    <path d="M0 0 C1.98 0.66 3.96 1.32 6 2 C5.01 2.495 5.01 2.495 4 3 C3.67 4.32 3.34 5.64 3 7 C-1.95 7 -6.9 7 -12 7 C-12 6.67 -12 6.34 -12 6 C-8.7 5.67 -5.4 5.34 -2 5 C-1.34 3.35 -0.68 1.7 0 0 Z "
          fill="#8AC5C7" transform="translate(175,107)"/>
    <path d="M0 0 C5.61 0 11.22 0 17 0 C17 3.3 17 6.6 17 10 C16.67 10 16.34 10 16 10 C16 7.69 16 5.38 16 3 C10.72 2.34 5.44 1.68 0 1 C0 0.67 0 0.34 0 0 Z "
          fill="#7CAEAF" transform="translate(232,53)"/>
    <path d="M0 0 C0.08082094 1.95766281 0.13910778 3.91626728 0.1875 5.875 C0.23970703 7.51082031 0.23970703 7.51082031 0.29296875 9.1796875 C0.19628906 10.11039063 0.09960938 11.04109375 0 12 C-0.99 12.66 -1.98 13.32 -3 14 C-3 9.71 -3 5.42 -3 1 C-1 0 -1 0 0 0 Z "
          fill="#559DA1" transform="translate(25,68)"/>
    <path d="M0 0 C0.28875 0.61875 0.5775 1.2375 0.875 1.875 C1.93720042 4.13325765 1.93720042 4.13325765 4 6 C-2.75 10 -2.75 10 -5 10 C-5.33 9.01 -5.66 8.02 -6 7 C-5.195625 6.401875 -4.39125 5.80375 -3.5625 5.1875 C-0.77672016 3.19052724 -0.77672016 3.19052724 0 0 Z "
          fill="#7ABABD" transform="translate(195,140)"/>
    <path d="M0 0 C-0.639375 0.20625 -1.27875 0.4125 -1.9375 0.625 C-4.34925077 1.89538209 -4.34925077 1.89538209 -4.75 5.125 C-4.8325 6.07375 -4.915 7.0225 -5 8 C-5.66 8 -6.32 8 -7 8 C-7.33 8.66 -7.66 9.32 -8 10 C-9.32850242 3.59903382 -9.32850242 3.59903382 -7.9375 1.0625 C-5.23787512 -0.41793945 -3.02429981 -0.20161999 0 0 Z "
          fill="#7EB0B0" transform="translate(108,127)"/>
    <path d="M0 0 C1.36125 0.37125 1.36125 0.37125 2.75 0.75 C-2.39285714 6.32142857 -2.39285714 6.32142857 -6.25 6.75 C-6.58 5.76 -6.91 4.77 -7.25 3.75 C-4.05 -0.31153846 -4.05 -0.31153846 0 0 Z "
          fill="#75B2B4" transform="translate(87.25,105.25)"/>
    <path d="M0 0 C4.05224029 2.8475202 6.1869334 5.36660757 8 10 C7.67 10.66 7.34 11.32 7 12 C4.33333333 9.33333333 1.66666667 6.66666667 -1 4 C-0.34 4 0.32 4 1 4 C0.67 2.68 0.34 1.36 0 0 Z "
          fill="#80B5B5" transform="translate(145,55)"/>
    <path d="M0 0 C0.33 0.99 0.66 1.98 1 3 C1.66 3.33 2.32 3.66 3 4 C0.03 6.475 0.03 6.475 -3 9 C-3.99 8.01 -4.98 7.02 -6 6 C-4 4 -2 2 0 0 Z "
          fill="#7AB6B6" transform="translate(86,45)"/>
    <path d="M0 0 C0.66 0.33 1.32 0.66 2 1 C1.814375 1.928125 1.62875 2.85625 1.4375 3.8125 C0.75876119 7.01343771 0.75876119 7.01343771 2 10 C1.01 10 0.02 10 -1 10 C-3.35723489 7.46815512 -4 6.52809907 -4 3 C-2 1.3125 -2 1.3125 0 0 Z "
          fill="#89B8BA" transform="translate(106,56)"/>
    <path d="M0 0 C0.33 0 0.66 0 1 0 C1.1953125 2.05078125 1.390625 4.1015625 1.5859375 6.15234375 C1.72257812 6.76207031 1.85921875 7.37179688 2 8 C2.66 8.33 3.32 8.66 4 9 C4.72693904 10.97888961 5.39816251 12.97954558 6 15 C3.53199953 13.84826645 1.95216435 12.95216435 0 11 C-1.26041667 3.78125 -1.26041667 3.78125 0 0 Z "
          fill="#91BEBF" transform="translate(259,31)"/>
    <path d="M0 0 C-3.22791555 2.1519437 -4.28400809 2.20086443 -8 2 C-8 2.66 -8 3.32 -8 4 C-10.31 4.33 -12.62 4.66 -15 5 C-10.68177756 -0.75762992 -6.92478377 -0.60507819 0 0 Z "
          fill="#8EB3B3" transform="translate(275,25)"/>
    <path d="M0 0 C-0.35049575 3.24208567 -0.56221181 4.61527704 -3.0625 6.8125 C-3.701875 7.204375 -4.34125 7.59625 -5 8 C-5.66 6.02 -6.32 4.04 -7 2 C-4.35261084 0.5393715 -3.10551666 0 0 0 Z "
          fill="#88BBBD" transform="translate(213,131)"/>
    <path d="M0 0 C-2.00773956 2.00773956 -3.36873617 2.99392854 -6 4 C-8.1875 3.8125 -8.1875 3.8125 -10 3 C-10.33 2.01 -10.66 1.02 -11 0 C-7.18243176 -1.37432457 -3.92744671 -0.67975039 0 0 Z "
          fill="#93C2C5" transform="translate(118,67)"/>
    <path d="M0 0 C-1.32338632 0.68620031 -2.65949948 1.34786461 -4 2 C-5.1446875 2.5878125 -5.1446875 2.5878125 -6.3125 3.1875 C-9.80678776 4.24391258 -12.45737895 3.69463158 -16 3 C-11.10496718 0.06298031 -5.59488309 -0.16954191 0 0 Z "
          fill="#98C0C2" transform="translate(67,26)"/>
    <path d="M0 0 C-0.33 0.99 -0.66 1.98 -1 3 C-4.375 4.3125 -4.375 4.3125 -8 5 C-8.99 4.34 -9.98 3.68 -11 3 C-9.73160474 2.49384702 -8.46016898 1.99530901 -7.1875 1.5 C-6.12595703 1.08234375 -6.12595703 1.08234375 -5.04296875 0.65625 C-3 0 -3 0 0 0 Z "
          fill="#81B4B2" transform="translate(119,52)"/>
    <path d="M0 0 C5.28 0 10.56 0 16 0 C16 0.33 16 0.66 16 1 C14.78763672 1.07347656 14.78763672 1.07347656 13.55078125 1.1484375 C12.48214844 1.22320312 11.41351563 1.29796875 10.3125 1.375 C8.72888672 1.47941406 8.72888672 1.47941406 7.11328125 1.5859375 C4.09322731 1.98760089 1.75921946 2.74069019 -1 4 C-0.67 2.68 -0.34 1.36 0 0 Z "
          fill="#A0CACF" transform="translate(119,87)"/>
    <path d="M0 0 C0.66 0.33 1.32 0.66 2 1 C1.125 5.75 1.125 5.75 0 8 C-3 7 -3 7 -5 5 C-4.34 4.67 -3.68 4.34 -3 4 C-2.67 3.01 -2.34 2.02 -2 1 C-1.34 0.67 -0.68 0.34 0 0 Z "
          fill="#54989A" transform="translate(36,38)"/>
    <path d="M0 0 C3.96 0 7.92 0 12 0 C12 0.33 12 0.66 12 1 C10.02 1 8.04 1 6 1 C5.67 1.99 5.34 2.98 5 4 C5 3.34 5 2.68 5 2 C3.02 2.33 1.04 2.66 -1 3 C-0.67 2.01 -0.34 1.02 0 0 Z "
          fill="#60A0A5" transform="translate(145,145)"/>
    <path d="M0 0 C0.66 0 1.32 0 2 0 C1.71125 0.845625 1.4225 1.69125 1.125 2.5625 C-0.00772704 6.02361041 -1.01824316 9.49372557 -2 13 C-2.33 13 -2.66 13 -3 13 C-3.44539877 4.2404908 -3.44539877 4.2404908 0 0 Z "
          fill="#90BDBC" transform="translate(44,52)"/>
    <path d="M0 0 C1.65 0 3.3 0 5 0 C5 0.66 5 1.32 5 2 C5.66 2.33 6.32 2.66 7 3 C3.32589215 4.17571451 -0.16929183 4.07366746 -4 4 C-4 3.67 -4 3.34 -4 3 C-2.35 3 -0.7 3 1 3 C0.67 2.01 0.34 1.02 0 0 Z "
          fill="#87C0C6" transform="translate(172,152)"/>
    <path d="M0 0 C3.25 -0.375 3.25 -0.375 7 0 C9.4375 3 9.4375 3 11 6 C6.95743617 4.77782954 3.50711041 3.37245704 0 1 C0 0.67 0 0.34 0 0 Z "
          fill="#90C5C4" transform="translate(112,145)"/>
    <path d="M0 0 C0.99 0.33 1.98 0.66 3 1 C2.67 3.97 2.34 6.94 2 10 C0.04224922 7.06337384 -0.56073149 5.4262944 -1 2 C-0.67 1.34 -0.34 0.68 0 0 Z "
          fill="#5BA6A4" transform="translate(248,31)"/>
    <path d="M0 0 C1.98 0 3.96 0 6 0 C5.01 1.485 5.01 1.485 4 3 C3.01 3 2.02 3 1 3 C1 3.66 1 4.32 1 5 C0.01 4.67 -0.98 4.34 -2 4 C-1.34 2.68 -0.68 1.36 0 0 Z "
          fill="#5B9B9B" transform="translate(49,29)"/>
    <path d="M0 0 C1.98 0 3.96 0 6 0 C6.33 1.32 6.66 2.64 7 4 C4 4 4 4 1 3 C0.67 2.01 0.34 1.02 0 0 Z " fill="#579B9A"
          transform="translate(103,128)"/>
    <path d="M0 0 C0.99 0.66 1.98 1.32 3 2 C-1.625 7.875 -1.625 7.875 -5 9 C-4.34 7.35 -3.68 5.7 -3 4 C-2.34 4 -1.68 4 -1 4 C-0.67 2.68 -0.34 1.36 0 0 Z "
          fill="#8BBCBC" transform="translate(217,101)"/>
    <path d="M0 0 C0.66 0 1.32 0 2 0 C2.66 3.3 3.32 6.6 4 10 C3.01 9.67 2.02 9.34 1 9 C0.67 6.03 0.34 3.06 0 0 Z "
          fill="#85B5B5" transform="translate(40,78)"/>
    <path d="M0 0 C0.66 0 1.32 0 2 0 C1.67 4.62 1.34 9.24 1 14 C0.67 14 0.34 14 0 14 C-0.19393875 11.85473901 -0.37998676 9.70876323 -0.5625 7.5625 C-0.71912109 5.77005859 -0.71912109 5.77005859 -0.87890625 3.94140625 C-0.91886719 2.97074219 -0.95882812 2.00007813 -1 1 C-0.67 0.67 -0.34 0.34 0 0 Z "
          fill="#64A3A0" transform="translate(180,74)"/>
    <path d="M0 0 C0.66 0.33 1.32 0.66 2 1 C1.67 1.99 1.34 2.98 1 4 C-2.5625 5.1875 -2.5625 5.1875 -6 6 C-4 4 -2 2 0 0 Z "
          fill="#79B1B2" transform="translate(40,33)"/>
    <path d="M0 0 C1.65 1.32 3.3 2.64 5 4 C4.67 4.66 4.34 5.32 4 6 C2.35 5.67 0.7 5.34 -1 5 C-0.67 3.35 -0.34 1.7 0 0 Z "
          fill="#76AFB0" transform="translate(246,26)"/>
    <path d="M0 0 C0.99 0 1.98 0 3 0 C3 1.32 3 2.64 3 4 C0.36 3.67 -2.28 3.34 -5 3 C-5 2.67 -5 2.34 -5 2 C-3.35 2 -1.7 2 0 2 C0 1.34 0 0.68 0 0 Z "
          fill="#96C9CC" transform="translate(137,152)"/>
    <path d="M0 0 C0.99 0.33 1.98 0.66 3 1 C2.525625 1.37125 2.05125 1.7425 1.5625 2.125 C-0.52205802 4.62646962 -0.64621491 6.81593418 -1 10 C-1.33 10 -1.66 10 -2 10 C-2 7.03 -2 4.06 -2 1 C-1.34 0.67 -0.68 0.34 0 0 Z "
          fill="#5E9E9C" transform="translate(262,29)"/>
    <path d="M0 0 C2.31 0 4.62 0 7 0 C6.67 0.99 6.34 1.98 6 3 C3.03 2.505 3.03 2.505 0 2 C0 1.34 0 0.68 0 0 Z "
          fill="#58ABAD" transform="translate(109,64)"/>
    <path d="M0 0 C0.66 0.33 1.32 0.66 2 1 C2 1.66 2 2.32 2 3 C-1.465 4.485 -1.465 4.485 -5 6 C-5 5.34 -5 4.68 -5 4 C-4.34 4 -3.68 4 -3 4 C-2.67 3.01 -2.34 2.02 -2 1 C-1.34 0.67 -0.68 0.34 0 0 Z "
          fill="#5B9D9A" transform="translate(187,54)"/>
    <path d="M0 0 C0.66 0 1.32 0 2 0 C2.625 2.3125 2.625 2.3125 3 5 C2.34 5.99 1.68 6.98 1 8 C-0.35439668 5.29120665 -0.06501451 2.99066732 0 0 Z "
          fill="#559C9E" transform="translate(25,52)"/>
</svg>
